<svg xmlns="http://www.w3.org/2000/svg" viewBox="0 0 128 128" id="unfortunately"><path d="M2 99H8a2 2 0 0 0 0-4H2a2 2 0 0 0 0 4zM126 75H112.30322v4H126a2 2 0 0 0 0-4zM20.44434 99H32.88916a2 2 0 1 0 0-4H20.44434a2 2 0 0 0 0 4zM45.3335 95a2 2 0 1 0 0 4H57.77783a2 2 0 1 0 0-4zM80.457 75H65.91644c-.052.01794-.10138.04034-.15375.05762L53.82642 79H80.457zM93.5 50a9 9 0 1 0-9-9A9.01015 9.01015 0 0 0 93.5 50zM2 37H6V23H2a2.00591 2.00591 0 0 1-2-2V39A2.00587 2.00587 0 0 1 2 37z"></path><rect width="10" height="14" x="10" y="23"></rect><rect width="10" height="14" x="24" y="23"></rect><rect width="10" height="14" x="38" y="23"></rect><path d="M2,79H6a15,15,0,0,1,30,0h4.75a1.9299,1.9299,0,0,0,.63-.1001L64.51,71.26a3.66194,3.66194,0,0,0,.46-.18005l-.66-.11a9.94532,9.94532,0,0,1,3.27-19.62l2.42.4V21A12.00952,12.00952,0,0,0,58,9H2a2.00587,2.00587,0,0,0-2,2V21a2.00587,2.00587,0,0,1,2-2H50a2.00587,2.00587,0,0,1,2,2V39a2.00591,2.00591,0,0,1-2,2H2a2.00591,2.00591,0,0,1-2-2V50a2.00587,2.00587,0,0,1,2-2H50a2,2,0,0,1,0,4H2a2.00591,2.00591,0,0,1-2-2v8a2.00587,2.00587,0,0,1,2-2H50a2,2,0,0,1,0,4H2a2.00591,2.00591,0,0,1-2-2V77A2.00591,2.00591,0,0,0,2,79Z"></path><path d="M92.36,97.57007l4.19-8.77,4.82,13.85986A2.00093,2.00093,0,0,0,103.6,103.97l19.09-3.36a6.42341,6.42341,0,1,0-2.24-12.65l-9.92,1.77-2.23-6.51V56.91a9.91578,9.91578,0,0,0-4.36-8.2,12.93106,12.93106,0,0,1-2.96,2.9,5.91045,5.91045,0,0,1,3.32,5.3V83.55a2.06352,2.06352,0,0,0,.11.6499l2.89,8.45A1.993,1.993,0,0,0,109.54,93.97l11.61-2.07007a2.42258,2.42258,0,1,1,.85,4.77L104.58,99.74,98.73,82.89a1.99563,1.99563,0,0,0-3.69-.20007L88.62,96.12a2.25794,2.25794,0,0,0-.17.55994s-2.49,16.65-2.49,16.67a2.03888,2.03888,0,0,1-3.47,1.02,1.95789,1.95789,0,0,1-.48-1.52l2.43-20.02,3.84-8.45a2.00162,2.00162,0,0,0,.18-.83V68.12l9.87-1.65a1.99533,1.99533,0,0,0,1.64-2.3,1.91734,1.91734,0,0,0-.24-.67,1.26775,1.26775,0,0,0-.13-.19.412.412,0,0,0-.1-.13.716.716,0,0,0-.18-.17.18667.18667,0,0,0-.07-.06,1.36462,1.36462,0,0,0-.21-.15.93983.93983,0,0,0-.22-.12.90576.90576,0,0,0-.21-.08,1.97852,1.97852,0,0,0-.26-.07,1.87343,1.87343,0,0,0-.34-.03,1.95774,1.95774,0,0,0-.34.03L84.8,64.67l-4.48.75a2.2847,2.2847,0,0,1-.64,0L65.63,63.08A1.943,1.943,0,0,1,64,61.16a1.94262,1.94262,0,0,1,2.27-1.92l12.75,2.12a5.96181,5.96181,0,0,0,2.02-.01l3.04-.61L95.4,58.46A1.997,1.997,0,0,0,96.26,54.95a1.25808,1.25808,0,0,0-.28-.19,1.97712,1.97712,0,0,0-1.38-.22L88.59,55.75a5.88678,5.88678,0,0,1,1.03-2.34,12.525,12.525,0,0,1-2.92-1.36c-.23-.13-.46-.28-.69-.44a7.08407,7.08407,0,0,0-.38.66,9.8413,9.8413,0,0,0-1.15,4.31l-4.09.82-.07.02a.33265.33265,0,0,1-.14.01.536.536,0,0,1-.22.01,1.51277,1.51277,0,0,1-.3-.02L70,55.8l-3.08-.51a6.58341,6.58341,0,0,0-.98-.08,5.94527,5.94527,0,0,0-.97,11.81L68.9,67.68a1.129,1.129,0,0,0,.12.02l.15.02c.16.03.4.07.69.11l1.55.26c.29.05.6.1.92.15l.48.08c2.79.45,6.19,1,7.01,1.11a.48636.48636,0,0,0,.12.01.17564.17564,0,0,0,.06.01.41347.41347,0,0,0,.1-.01.21991.21991,0,0,0,.08-.01c.64-.07,2.6-.38,3.63-.54.25-.04.44-.08.55-.09l.05-.01a.17519.17519,0,0,1,.05-.01V83.12l-3.79,8.33a2.09348,2.09348,0,0,0-.17.59009L80.14,95H70.22a2,2,0,0,0,0,4h9.44l-1.62,13.38a5.93243,5.93243,0,0,0,.29,2.62H2a2,2,0,0,0,0,4H126a2,2,0,0,0,0-4H89.65a5.66847,5.66847,0,0,0,.25995-1.08008Z"></path><path d="M32,79A11,11,0,1,0,21,90,11.01245,11.01245,0,0,0,32,79ZM14,79a7,7,0,1,1,7,7A7.00818,7.00818,0,0,1,14,79Z"></path></svg>