<svg xmlns="http://www.w3.org/2000/svg" viewBox="0 0 64 64" id="PresidentialChair"><path d="M43,27H40a1,1,0,0,1,0-2h3V23H40a1,1,0,0,1,0-2h3V19H40a1,1,0,0,1,0-2h3V8.93A.935.935,0,0,0,42.07,8H21.93a.935.935,0,0,0-.93.93V17h3a1,1,0,0,1,0,2H21v2h3a1,1,0,0,1,0,2H21v2h3a1,1,0,0,1,0,2H21v4H43ZM37.65,16.19l-2.29,1.66a.773.773,0,0,0-.28.87l.87,2.7a.779.779,0,0,1-1.2.87l-2.29-1.66a.78.78,0,0,0-.92,0l-2.29,1.66a.779.779,0,0,1-1.2-.87l.87-2.7a.773.773,0,0,0-.28-.87l-2.29-1.66a.785.785,0,0,1,.46-1.42h2.83a.774.774,0,0,0,.74-.54l.88-2.69a.777.777,0,0,1,1.48,0l.88,2.69a.774.774,0,0,0,.74.54h2.83A.785.785,0,0,1,37.65,16.19ZM48.07,23H45V34.07A2.928,2.928,0,0,1,42.07,37H21.93A2.928,2.928,0,0,1,19,34.07V23H15.93A2.928,2.928,0,0,0,13,25.93V40.07A2.928,2.928,0,0,0,15.93,43H31v6.279L16.769,54.023a3,3,0,1,0,2.654,1.223L31,51.387v3.8a3,3,0,1,0,2,0v-3.8l11.577,3.859a3,3,0,1,0,2.654-1.223L33,49.279V43H48.07A2.928,2.928,0,0,0,51,40.07V25.93A2.928,2.928,0,0,0,48.07,23ZM47,58a1,1,0,1,1,1-1A1,1,0,0,1,47,58ZM17,58a1,1,0,1,1,1-1A1,1,0,0,1,17,58Zm15,1a1,1,0,1,1,1-1A1,1,0,0,1,32,59ZM25,40H20a1,1,0,0,1,0-2h5a1,1,0,0,1,0,2Zm19,0H39a1,1,0,0,1,0-2h5a1,1,0,0,1,0,2ZM21,34.07V33H43v1.07a.935.935,0,0,1-.93.93H21.93A.935.935,0,0,1,21,34.07Z" fill="#6e6e6e" class="color000000 svgShape"></path></svg>