<svg xmlns="http://www.w3.org/2000/svg" viewBox="0 0 512 512" id="HandClean"><path fill="#d0d0d0" d="M473.145 329.898s-65.1-60.201-89.454-53.564c-30.842 8.414-34.689 29.791-97.518 62.229-46.72 24.121-74.611 40.96-74.611 40.96s-48.274-38.199 29.266-68.929c-2.209-24.094 28.539-72.017 53.085-75.979-17.51.063-55.845 47.771-53.085 75.979 0 0-101.406 16.472-165.277 6.433-21.41-3.363-26.909-42.451 4.713-41.86 60.604 1.131 126.254-2.299 126.254-2.299s-104.547 9.118-149.55-1.514c-32.042-7.569-18.467-44.161 5.046-41.181 78.156 9.906 137.701 1.92 137.701 1.92-2.861.572-74.688 6.799-120.514-5.09-28.754-7.462-18.583-43.689 8.333-39.341 64.683 10.446 109.923 5.021 109.923 5.021s-51.879 7.103-95.546-5.261c-19.601-5.549-22.806-34.478 3.749-34.632 26.561-.155 157.57-6.404 185.102-1.927 27.533 4.476 48.564-.435 65.717-.68 65.576-.934 117.189 34.498 117.189 34.498l-.523 145.217z" class="colorf2c3af svgShape"></path><path fill="#ffffff" d="m240.827 310.594 115.65-160.41-216.63-11.576-94.783 122c-13.881 55.773 5.335 156.656 5.335 156.656l56.448-15.656 49.602 25.937 59.398-15.937 55 23.566h-.189l-13.277-80.781" class="colorffffff svgShape"></path><path fill="#6e6e6e" d="M270.848 437.674h-.189c-.564 0-1.09-.188-1.513-.51l-53.486-22.918-58.562 15.713a2.501 2.501 0 0 1-1.806-.199l-48.727-25.479-55.497 15.393a2.498 2.498 0 0 1-3.124-1.941c-.048-.253-4.86-25.705-7.905-57.644-4.1-43.005-3.225-76.679 2.601-100.084a2.52 2.52 0 0 1 .451-.931l94.783-122a2.46 2.46 0 0 1 2.108-.962l216.63 11.576a2.498 2.498 0 0 1 1.894 3.958l-115.65 160.41a2.5 2.5 0 0 1-4.056-2.924l112.973-156.696-210.753-11.262-93.656 120.548c-12.114 49.662 2.134 136.129 5.007 152.4l53.809-14.924a2.5 2.5 0 0 1 1.826.193l48.737 25.485 58.457-15.685a2.508 2.508 0 0 1 1.632.117l50.605 21.684-12.523-76.195a2.5 2.5 0 1 1 4.934-.81l13.129 79.875a2.5 2.5 0 0 1-2.129 3.812z" class="coloraaaaaa svgShape"></path><path fill="#e6e6e6" d="M64.833 263.107 227 306.125" class="colore6e6e6 svgShape"></path><path fill="#6e6e6e" d="M214.653 305.351c-.213 0-.428-.027-.644-.085l-14.498-3.847a2.5 2.5 0 1 1 1.284-4.832l14.498 3.847a2.5 2.5 0 0 1-.64 4.917zm-33.83-8.975a2.46 2.46 0 0 1-.643-.085l-14.498-3.846a2.5 2.5 0 1 1 1.282-4.832l14.498 3.846a2.5 2.5 0 0 1-.639 4.917zm-33.83-8.974a2.46 2.46 0 0 1-.643-.085l-14.498-3.846a2.499 2.499 0 1 1 1.282-4.832l14.498 3.846a2.5 2.5 0 0 1-.639 4.917zm-33.83-8.973c-.213 0-.428-.027-.644-.085l-14.498-3.847c-1.334-.354-2.129-1.723-1.774-3.058s1.724-2.131 3.058-1.774l14.498 3.847a2.5 2.5 0 0 1-.64 4.917zm-33.829-8.975a2.46 2.46 0 0 1-.643-.085l-14.499-3.846a2.5 2.5 0 1 1 1.282-4.832l14.499 3.846a2.501 2.501 0 0 1-.639 4.917z" class="coloraaaaaa svgShape"></path><path fill="#ffffff" d="M139.848 138.607s-59.083 51.289-104.519 66c13.86 13.455 54.666 21.667 54.666 21.667l34.729 37.394 51.771-.561 38.694 28.495 129.473-132.661-204.814-20.334z" class="colorffffff svgShape"></path><path fill="#6e6e6e" d="M215.189 294.103c-.518 0-1.038-.16-1.481-.487l-38.021-27.999-50.935.552h-.027a2.501 2.501 0 0 1-1.832-.799l-34.186-36.809c-5.978-1.26-41.817-9.246-55.119-22.159a2.498 2.498 0 0 1 .971-4.172c44.424-14.383 103.063-64.999 103.65-65.509a2.483 2.483 0 0 1 1.886-.6l204.815 20.334a2.5 2.5 0 0 1 1.542 4.234l-129.473 132.66a2.495 2.495 0 0 1-1.79.754zm-38.693-33.496a2.5 2.5 0 0 1 1.482.487l36.942 27.205 124.322-127.384L140.666 141.2c-7.329 6.275-58.068 48.937-100.328 64.325 15.485 11.216 49.778 18.223 50.149 18.297.514.104.982.366 1.339.75l33.977 36.583 50.665-.549a.281.281 0 0 0 .028.001z" class="coloraaaaaa svgShape"></path><path fill="#dfdfdf" d="M472.823 204.337s-11.147 5.013-40.068 12.413c-30.97 7.925-59.127 38.251-112.758 57.165-49.585 17.488-65.646 22.425-65.646 22.425l45.078-65.576s-67.821-15.427-150.074 24.659c-19.486 9.496-43.049-20.518-13.861-37.412 50.012-28.948 127.891-31.57 127.891-31.57s-84.456 4.24-131.659 34.031c-19.12 12.069-42.072-17.512 6.624-45.713 33.354-19.318 123.804-30.229 123.804-30.229s-88.639 12.711-118.365 27.386c0 0-5.042-36.13 62.454-50.644 21.471-4.619 59.814-7.814 59.814-7.814s-50.153 1.929-83.767 14.762c0 0 16.579-34.188 67.867-40.867 26.336-3.434 66.577-11.998 114.777.076 71.886 18.006 111.737-8.235 111.737-8.235" class="colorf7d7c7 svgShape"></path><path fill="#b3b3b3" d="M130.959 220.056a1.502 1.502 0 0 0 2.056.521c.122-.073 12.459-7.369 34.809-15.048 20.668-7.102 54.307-15.962 97.192-17.849a1.501 1.501 0 0 0 1.421-1.687 1.502 1.502 0 0 0-1.554-1.31c-82.787 3.642-132.907 33.019-133.403 33.316a1.497 1.497 0 0 0-.521 2.057zm16.032-51.926a1.502 1.502 0 0 0-.843 1.946 1.503 1.503 0 0 0 1.947.844c.114-.047 11.842-4.652 31.934-10.062 18.54-4.991 48.194-11.704 84.19-15.343a1.5 1.5 0 0 0 1.34-1.644c0-.014-.002-.025-.004-.039a1.503 1.503 0 0 0-1.64-1.305c-36.225 3.664-66.067 10.425-84.724 15.448-20.238 5.452-32.083 10.108-32.2 10.155zm40.224-43.96a1.5 1.5 0 0 0 1.026 2.818c.285-.104 29.143-10.407 80.084-12.687a1.5 1.5 0 1 0-.134-2.997c-51.452 2.303-80.689 12.759-80.976 12.866z" class="colore29983 svgShape"></path><path fill="#d0d0d0" d="m264.771 350.332-53.209 29.19S184.5 357.5 202.25 336s45.25-28.5 45.25-28.5" class="colorf2c3af svgShape"></path></svg>