<svg xmlns="http://www.w3.org/2000/svg" enable-background="new 0 0 1080 1080" viewBox="0 0 1080 1080" id="business-news"><path d="M815.6,907.5V647.3h82.8c20.1,0,36.5-16.4,36.5-36.5V206.2c0-17.5-6.8-34.1-19.2-46.7c-11.2-11.5-26.4-18.3-42.8-19.3
		c-1.2-0.2-2.5-0.2-4.1-0.2c0,0,0,0,0,0H211.2c-36.5,0-66.2,29.7-66.2,66.2v701.3c0,17.9,14.6,32.5,32.5,32.5h605.5
		C801,940,815.6,925.4,815.6,907.5z M922.4,206.2v404.7c0,13.2-10.7,23.9-23.9,23.9h-82.8V459c0-0.8-0.2-1.5-0.4-2.2V206.2
		c0-19.6,10.6-36.6,26.2-46c8.1-4.8,17.4-7.6,27.5-7.6c0.7,0,1.4,0,2,0.1c0.3,0.1,0.6,0.1,0.9,0.1c13.4,0.7,25.8,6.2,34.9,15.5
		C916.8,178.5,922.4,192,922.4,206.2z M783.1,927.4H177.6c-11,0-20-9-20-20V206.2c0-29.6,24.1-53.6,53.6-53.6h618.8
		c-0.2,0.2-0.4,0.4-0.7,0.5c-1.6,1.2-3.2,2.5-4.7,3.9c-0.3,0.3-0.7,0.6-1,0.9c-1.6,1.5-3.1,3.1-4.6,4.7c-0.1,0.2-0.3,0.3-0.4,0.5
		c-4.9,5.7-8.8,12.2-11.6,19.4c-0.1,0.2-0.2,0.5-0.3,0.7c-0.8,2.2-1.5,4.4-2.1,6.6c-0.1,0.3-0.1,0.5-0.2,0.8
		c-1.2,5-1.9,10.2-1.9,15.6V641c0,0.9,0.2,1.7,0.5,2.4v264C803.1,918.5,794.1,927.4,783.1,927.4z"></path><path d="M246.1 435.1h157.8c19.2 0 34.8-15.6 34.8-34.8V242.6c0-19.2-15.6-34.8-34.8-34.8H246.1c-19.2 0-34.7 15.6-34.7 34.8v157.7C211.3 419.5 226.9 435.1 246.1 435.1zM223.9 242.6c0-12.3 9.9-22.3 22.2-22.3h157.8c12.3 0 22.3 10 22.3 22.3v157.7c0 12.3-10 22.3-22.3 22.3H246.1c-12.2 0-22.2-10-22.2-22.3V242.6zM497 220.3h224.3c3.5 0 6.3-2.8 6.3-6.3 0-3.5-2.8-6.3-6.3-6.3H497c-3.5 0-6.3 2.8-6.3 6.3C490.7 217.5 493.5 220.3 497 220.3zM497 290.6h224.3c3.5 0 6.3-2.8 6.3-6.3s-2.8-6.3-6.3-6.3H497c-3.5 0-6.3 2.8-6.3 6.3S493.5 290.6 497 290.6zM497 361h224.3c3.5 0 6.3-2.8 6.3-6.3s-2.8-6.3-6.3-6.3H497c-3.5 0-6.3 2.8-6.3 6.3S493.5 361 497 361zM497 431.3h224.3c3.5 0 6.3-2.8 6.3-6.3s-2.8-6.3-6.3-6.3H497c-3.5 0-6.3 2.8-6.3 6.3S493.5 431.3 497 431.3zM441.9 634.8H217.6c-3.5 0-6.3 2.8-6.3 6.3s2.8 6.3 6.3 6.3h224.3c3.5 0 6.3-2.8 6.3-6.3S445.3 634.8 441.9 634.8zM441.9 705.1H217.6c-3.5 0-6.3 2.8-6.3 6.3 0 3.5 2.8 6.3 6.3 6.3h224.3c3.5 0 6.3-2.8 6.3-6.3C448.1 707.9 445.3 705.1 441.9 705.1zM441.9 775.4H217.6c-3.5 0-6.3 2.8-6.3 6.3s2.8 6.3 6.3 6.3h224.3c3.5 0 6.3-2.8 6.3-6.3S445.3 775.4 441.9 775.4zM441.9 845.8H217.6c-3.5 0-6.3 2.8-6.3 6.3 0 3.5 2.8 6.3 6.3 6.3h224.3c3.5 0 6.3-2.8 6.3-6.3C448.1 848.6 445.3 845.8 441.9 845.8zM232.6 586.3h473.7c11.7 0 21.2-9.5 21.2-21.2V500c0-11.7-9.5-21.2-21.2-21.2H232.6c-11.7 0-21.3 9.5-21.3 21.2v65.1C211.3 576.8 220.9 586.3 232.6 586.3zM223.9 500c0-4.8 3.9-8.6 8.7-8.6h473.7c4.8 0 8.6 3.9 8.6 8.6v65.1c0 4.8-3.9 8.6-8.6 8.6H232.6c-4.8 0-8.7-3.9-8.7-8.6V500zM618.7 757.8c-2.2-2.2-2.2-6 0-8.3l59.8-59.8c3.5-3.5 5.3-8.3 5-13.2-.3-4.9-2.7-9.4-6.5-12.3-45.5-36.4-110.9-32.7-152.2 8.6-25.6 25.7-37.5 62.4-32 98.4 5.6 36.5 28.3 67.6 62.2 85.3 15.7 8.2 32.8 12.2 50 12.2 25.4 0 51-8.7 72.2-25.7 3.8-3.1 6-7.7 6.3-12.6.2-4.8-1.6-9.5-5-12.9L618.7 757.8zM669.3 833.3c-31.6 25.3-74.2 30.1-108.5 12.1-30.3-15.8-50.6-43.6-55.6-76.1-4.9-32 5.7-64.7 28.5-87.6 19.8-19.8 45.9-29.9 72.1-29.9 22.4 0 44.8 7.4 63.5 22.3 1.4 1.1 1.7 2.5 1.7 3.2 0 .8-.1 2.2-1.3 3.5l-59.8 59.8c-7.2 7.2-7.2 18.9 0 26l59.8 59.7c1.2 1.2 1.4 2.7 1.3 3.5C670.9 831.2 670.2 832.5 669.3 833.3z"></path><path d="M711.9,675.2c-4.5-0.1-8.5,1.5-11.6,4.6l-63.1,63c-6,6.1-5.9,15.9,0,21.9l63,63c2.9,3,6.8,4.6,10.9,4.6c0.2,0,0.5,0,0.7,0
		c4.4-0.2,8.6-2.3,11.4-5.9c34.8-42.2,34.8-103.4,0-145.4C720.5,677.5,716.3,675.4,711.9,675.2z M713.6,818.4
		C713.6,818.4,713.6,818.4,713.6,818.4c-0.6,0.8-1.5,1.2-2.3,1.3c-0.5,0-1.3-0.1-2.1-0.9l-63-63c-1.2-1.2-1.1-3,0-4.2l63.1-63
		c0.7-0.7,1.4-0.9,2-0.9c0,0,0.1,0,0.1,0c0.9,0,1.7,0.5,2.3,1.2C744.6,726.4,744.6,780.8,713.6,818.4z"></path></svg>