<svg id="SvgjsSvg1146" width="288" height="288" xmlns="http://www.w3.org/2000/svg" version="1.1" xmlns:xlink="http://www.w3.org/1999/xlink" xmlns:svgjs="http://svgjs.com/svgjs"><defs id="SvgjsDefs1147"></defs><g id="SvgjsG1148"><svg xmlns="http://www.w3.org/2000/svg" xmlns:xlink="http://www.w3.org/1999/xlink" viewBox="0 0 64 64" width="288" height="288"><defs><path id="a" d="M.06 64V.04H64V64z"></path></defs><g fill="none" fill-rule="evenodd"><mask id="b" fill="#fff"><use xlink:href="#a"></use></mask><path fill="#f4b854" d="M64 32c0 17.673-14.327 32-32 32C14.327 64 0 49.673 0 32 0 14.327 14.327 0 32 0c17.673 0 32 14.327 32 32" mask="url(#b)" class="color76ABC4 svgShape"></path><path fill="#638da0" d="M48 48H16a4 4 0 0 1-4-4V24v18a4 4 0 0 0 3.97 4h32.06A4 4 0 0 0 52 42v2a4 4 0 0 1-4 4" class="color638DA0 svgShape"></path><path fill="#ffffff" d="M52 42a4 4 0 0 1-4 4H16a4 4 0 0 1-4-4V22a4 4 0 0 1 4-4h32a4 4 0 0 1 4 4v20" class="colorDEDECA svgShape"></path><path fill="#b3b2a4" d="M51.328 43.96a5.169 5.169 0 0 0-.378-.414L36.662 32.852 37.671 32 50.95 43.228c.18.199.328.393.461.585a6.972 6.972 0 0 1-.083.147m-38.656 0a6.972 6.972 0 0 1-.083-.147c.133-.192.281-.386.461-.585l13.295-11.241 1.001.859-14.296 10.7a5.169 5.169 0 0 0-.378.414" class="colorB3B2A4 svgShape"></path><path fill="#ffffff" d="M35.524 32c-1.938-1.9-5.11-1.9-7.048 0L13.05 43.546c-.18.176-.328.348-.461.518A3.985 3.985 0 0 0 16 46h32c1.451 0 2.709-.78 3.411-1.936a5.148 5.148 0 0 0-.461-.518L35.524 32" class="colorDEDECA svgShape"></path><path fill="#638da0" d="M15.995 18H16h-.005m32.01 0H48h.005" class="color638DA0 svgShape"></path><path fill="#b3b2a4" d="m37.671 32-2.147-1.815c-.969-1.073-2.247-1.61-3.524-1.61-1.277 0-2.555.537-3.524 1.61l-2.131 1.802-13.756-11.799c.701-1.305 1.957-2.186 3.406-2.188h32.01c1.449.002 2.705.883 3.406 2.188a5.777 5.777 0 0 1-.461.584L37.671 32" class="colorB3B2A4 svgShape"></path><path fill="#939388" d="M36.662 32.852 35.524 32A5.02 5.02 0 0 0 32 30.575 5.02 5.02 0 0 0 28.476 32l-1.13.846-1.001-.859 2.131-1.802c.969-1.073 2.247-1.61 3.524-1.61 1.277 0 2.555.537 3.524 1.61L37.671 32l-1.009.852" class="color939388 svgShape"></path><path fill="#b3b2a4" d="M32 35.425c-1.277 0-2.555-.537-3.524-1.61l-1.13-.969 1.13-.846A5.02 5.02 0 0 1 32 30.575 5.02 5.02 0 0 1 35.524 32l1.138.852-1.138.963c-.969 1.073-2.247 1.61-3.524 1.61" class="colorB3B2A4 svgShape"></path><path fill="#fffffe" d="M28.476 32c1.938 1.9 5.11 1.9 7.048 0L50.95 20.454c.18-.176.328-.348.461-.518A3.986 3.986 0 0 0 48 18H16c-1.451 0-2.71.78-3.411 1.936.133.17.281.342.461.518L28.476 32" class="colorFFFFFE svgShape"></path></g></svg></g></svg>