<svg xmlns="http://www.w3.org/2000/svg" viewBox="0 0 98 98" id="PoundM-Commerce"><g fill="#000000" class="color000000 svgShape"><path fill="#757575" d="M63,76V88a6,6,0,0,1-6,6H17a6,6,0,0,1-6-6V76Z" class="color00acea svgShape"></path><polygon fill="#e4e4e4" points="11 19 11 76 63 76 63 63.7 63 62.8 63 31.6 63 30.3 63 19 11 19" class="colord4e1f4 svgShape"></polygon><path fill="#757575" d="M63,10v9H11V10a6,6,0,0,1,6-6H57A6,6,0,0,1,63,10Z" class="color00acea svgShape"></path><path fill="#6e6e6e" d="M43.5,13h-13a2,2,0,0,1,0-4h13a2,2,0,0,1,0,4Z" class="color224099 svgShape"></path><circle cx="37" cy="85" r="4" fill="#353535" class="color083863 svgShape"></circle><polygon fill="#777777" points="87 31.6 87 62.8 63 62.8 59.1 62.8 51 70.6 51 62.8 42.4 62.8 42.4 31.6 63 31.6 87 31.6" class="color00efd1 svgShape"></polygon><path fill="#757575" d="M75.4,54.6a2,2,0,0,0-2.5-1.4l-.9.3a3.1,3.1,0,0,1-2.5-.2,6.7,6.7,0,0,0-3-.8l.3-1.6v-.2c0-.6.1-1.1.1-1.7H69a2,2,0,0,0,0-4H66.4c0-.2-.1-.3-.1-.5a8.8,8.8,0,0,1-.3-2,1.9,1.9,0,0,1,.2-.8,1.6,1.6,0,0,1,.4-.7,1.8,1.8,0,0,1,.7-.5l.9-.2c1.6,0,1.9.8,2.1,1.5a2,2,0,1,0,3.9-.8,5.7,5.7,0,0,0-6-4.7,6.4,6.4,0,0,0-2.4.5,7.7,7.7,0,0,0-2.1,1.4,6.7,6.7,0,0,0-1.2,2,5.9,5.9,0,0,0-.5,2.3,12.9,12.9,0,0,0,.3,2.5H60a2,2,0,0,0,0,4h2.9a6.2,6.2,0,0,1-.1,1.3h0a4.9,4.9,0,0,1-.8,2.3l-.7.9a2,2,0,0,0-.2,2.2,2,2,0,0,0,2,1l2.7-.3a3.2,3.2,0,0,1,1.9.3,6.3,6.3,0,0,0,3.3.9,7.8,7.8,0,0,0,2.1-.4l1-.3A2,2,0,0,0,75.4,54.6Z" class="color00acea svgShape"></path></g></svg>