<svg xmlns="http://www.w3.org/2000/svg" width="96" height="96" fill="none" viewBox="0 0 96 96" id="pillow"><path fill="#000" d="M19.4578 24.4627L17.69 26.2304L19.4578 24.4627ZM87.154 31.4718L89.319 32.7218V32.7218L87.154 31.4718ZM87.154 67.6025L89.319 66.3525V66.3525L87.154 67.6025ZM87.3803 77.5938L86.1303 75.4287L87.3803 77.5938ZM77.389 72.4892L79.5541 71.2392L77.389 72.4892ZM20.3463 73.8671L22.1141 75.6349H22.1141L20.3463 73.8671ZM9.14538 77.4211L7.37761 79.1889L7.37761 79.1889L9.14538 77.4211ZM11.8109 32.1096L13.5786 30.3418L11.8109 32.1096ZM8.25688 20.9087L6.48912 19.1409H6.48912L8.25688 20.9087ZM12.2879 32.9415L14.6963 33.6121L12.2879 32.9415ZM12.1377 32.4238L13.8341 30.5875L12.1377 32.4238ZM12.3726 64.7913L10.5015 63.1333L12.3726 64.7913ZM12.4849 64.3022L14.8847 63.6016L12.4849 64.3022ZM22.5631 71.4276L23.0377 68.9731L22.5631 71.4276ZM22.0076 71.6965L19.8156 70.4945L22.0076 71.6965ZM20.2274 25.3154L18.284 26.8881L20.2274 25.3154ZM20.7359 25.4994L21.2584 27.9442L20.7359 25.4994ZM76.8318 71.3802L74.5325 72.3615L76.8318 71.3802ZM76.2499 71.0679L75.7424 68.62L76.2499 71.0679ZM85.287 33.8158L83.6899 31.8925L85.287 33.8158ZM85.1022 34.3547L87.527 33.7462L85.1022 34.3547ZM84.5561 64.2206L86.957 64.9175L84.5561 64.2206ZM84.7485 64.7837L83.2324 66.7716L84.7485 64.7837ZM77.9781 25.8291L78.5287 23.3904L77.9781 25.8291ZM78.2775 25.6966L80.4426 26.9466L80.4426 26.9466L78.2775 25.6966ZM22.1707 23.7427C21.877 23.3798 21.5607 23.0301 21.2256 22.6949L17.69 26.2304C17.9081 26.4485 18.1062 26.6684 18.284 26.8881L22.1707 23.7427ZM78.5287 23.3904C59.3438 19.059 39.4468 18.9444 20.2135 23.0546L21.2584 27.9442C39.7839 23.9853 58.9487 24.0956 77.4275 28.2677L78.5287 23.3904ZM89.5188 18.4269C86.7191 16.8105 83.5995 17.8604 81.4936 19.1083C79.2763 20.4222 77.2592 22.4603 76.1125 24.4466L80.4426 26.9466C81.136 25.7456 82.521 24.3114 84.0425 23.4098C85.6754 22.4422 86.6314 22.5333 87.0188 22.7571L89.5188 18.4269ZM89.319 32.7218C90.298 31.0262 91.5161 28.5067 92.0414 26.0494C92.5185 23.8175 92.667 20.2445 89.5188 18.4269L87.0188 22.7571C87.0579 22.7796 87.569 23.0529 87.1519 25.0041C86.783 26.7299 85.8501 28.7302 84.9889 30.2218L89.319 32.7218ZM86.8842 35.7391C87.8595 34.9291 88.6532 33.8751 89.319 32.7218L84.9889 30.2218C84.5078 31.055 84.0656 31.5805 83.6899 31.8925L86.8842 35.7391ZM86.957 64.9175C89.9081 54.7511 90.0971 43.9892 87.527 33.7462L82.6773 34.9631C85.0323 44.3486 84.8589 54.2095 82.1552 63.5237L86.957 64.9175ZM83.2324 66.7716C83.8566 67.2476 84.4717 67.9567 84.9889 68.8525L89.319 66.3525C88.5312 64.9879 87.5026 63.7401 86.2646 62.7959L83.2324 66.7716ZM84.9889 68.8525C85.8148 70.2829 86.5003 71.9897 86.6703 73.402C86.8413 74.8227 86.4644 75.2359 86.1303 75.4287L88.6303 79.7588C91.4835 78.1115 91.9135 75.1227 91.6345 72.8046C91.3545 70.4781 90.3333 68.1092 89.319 66.3525L84.9889 68.8525ZM86.1303 75.4287C85.7429 75.6524 84.7869 75.7436 83.154 74.776C81.6325 73.8744 80.2475 72.4401 79.5541 71.2392L75.224 73.7392C76.3708 75.7255 78.3878 77.7636 80.6051 79.0775C82.711 80.3254 85.8306 81.3753 88.6303 79.7588L86.1303 75.4287ZM79.5541 71.2392C79.3866 70.9491 79.2461 70.6683 79.1312 70.3989L74.5325 72.3615C74.7318 72.8286 74.9638 73.2885 75.224 73.7392L79.5541 71.2392ZM22.0885 73.8821C40.1501 77.3743 58.7321 77.2523 76.7573 73.5159L75.7424 68.62C58.3648 72.2221 40.4504 72.3398 23.0377 68.9731L22.0885 73.8821ZM22.1141 75.6349C22.9376 74.8114 23.6545 73.8926 24.1996 72.8986L19.8156 70.4945C19.5314 71.0126 19.1195 71.5584 18.5785 72.0994L22.1141 75.6349ZM7.37761 79.1889C8.62433 80.4356 10.2043 80.8413 11.6478 80.8295C13.0524 80.8181 14.4586 80.4197 15.7008 79.9063C18.18 78.8816 20.6007 77.1483 22.1141 75.6349L18.5785 72.0994C17.4896 73.1883 15.611 74.5332 13.7909 75.2855C12.8834 75.6605 12.1399 75.8254 11.6071 75.8297C11.113 75.8337 10.9676 75.7078 10.9131 75.6534L7.37761 79.1889ZM10.5015 63.1333C8.95789 64.8753 7.37147 67.7276 6.48392 70.4882C6.03648 71.8799 5.71839 73.3938 5.73752 74.8344C5.75637 76.2536 6.11372 77.925 7.37761 79.1889L10.9131 75.6534C10.9124 75.6526 10.9049 75.6453 10.8923 75.624C10.879 75.6016 10.8578 75.5599 10.8349 75.4912C10.7873 75.3482 10.7417 75.1145 10.7371 74.768C10.7276 74.0578 10.8926 73.1116 11.244 72.0186C11.9541 69.8098 13.2287 67.5947 14.2437 66.4493L10.5015 63.1333ZM9.87951 32.2708C6.89744 42.9804 6.96693 54.3224 10.0851 65.0028L14.8847 63.6016C12.0278 53.8159 11.9642 43.4237 14.6963 33.6121L9.87951 32.2708ZM10.0431 33.8774C10.1737 34.008 10.3065 34.1356 10.4413 34.2602L13.8341 30.5875C13.7487 30.5086 13.6635 30.4267 13.5786 30.3418L10.0431 33.8774ZM6.48912 19.1409C5.2424 20.3876 4.8367 21.9676 4.84846 23.4111C4.8599 24.8157 5.25826 26.2219 5.77169 27.4641C6.7964 29.9433 8.52972 32.364 10.0431 33.8774L13.5786 30.3418C12.4897 29.2529 11.1448 27.3743 10.3925 25.5542C10.0175 24.6467 9.85263 23.9032 9.84829 23.3704C9.84427 22.8763 9.97019 22.7309 10.0247 22.6764L6.48912 19.1409ZM21.2256 22.6949C19.7122 21.1815 17.2915 19.4482 14.8123 18.4235C13.5701 17.9101 12.1639 17.5117 10.7593 17.5003C9.31581 17.4885 7.73583 17.8942 6.48912 19.1409L10.0247 22.6764C10.0791 22.622 10.2245 22.4961 10.7186 22.5001C11.2514 22.5044 11.995 22.6693 12.9024 23.0443C14.7225 23.7966 16.6011 25.1415 17.69 26.2304L21.2256 22.6949ZM14.6963 33.6121C15.0082 32.4917 14.6413 31.3331 13.8341 30.5875L10.4413 34.2602C9.91873 33.7775 9.67148 33.0179 9.87951 32.2708L14.6963 33.6121ZM14.2437 66.4493C14.9135 65.6935 15.1834 64.6248 14.8847 63.6016L10.0851 65.0028C9.88656 64.3229 10.069 63.6214 10.5015 63.1333L14.2437 66.4493ZM23.0377 68.9731C21.6809 68.7107 20.4135 69.404 19.8156 70.4945L24.1996 72.8986C23.8202 73.5905 22.9991 74.0582 22.0885 73.8821L23.0377 68.9731ZM18.284 26.8881C18.9725 27.7389 20.1078 28.1901 21.2584 27.9442L20.2135 23.0546C20.9836 22.8901 21.727 23.1943 22.1707 23.7427L18.284 26.8881ZM79.1312 70.3989C78.5931 69.1382 77.2151 68.3147 75.7424 68.62L76.7573 73.5159C75.7699 73.7206 74.876 73.1664 74.5325 72.3615L79.1312 70.3989ZM83.6899 31.8925C82.8561 32.5848 82.3736 33.7527 82.6773 34.9631L87.527 33.7462C87.7307 34.5582 87.4018 35.3092 86.8842 35.7391L83.6899 31.8925ZM82.1552 63.5237C81.7895 64.7836 82.2891 66.0522 83.2324 66.7716L86.2646 62.7959C86.8626 63.252 87.2017 64.0746 86.957 64.9175L82.1552 63.5237ZM77.4275 28.2677C78.636 28.5405 79.8466 27.9789 80.4426 26.9466L76.1125 24.4466C76.5877 23.6236 77.556 23.1708 78.5287 23.3904L77.4275 28.2677Z"></path><path stroke="#000" stroke-linecap="round" stroke-width="5" d="M53.471 44.5759L54.9933 42.7679C58.8346 38.2058 65.2864 36.8408 70.6463 39.4563V39.4563M23.1866 52.5997L26.5678 51.7894C35.0998 49.745 43.9289 53.7652 47.9884 61.543V61.543"></path></svg>