<svg xmlns="http://www.w3.org/2000/svg" enable-background="new 0 0 68 68" viewBox="0 0 68 68" id="Plug"><path fill="#6e6e6e" d="M22.3457,2.00001c-1.83744,0-3.42188,1.48294-3.42188,3.39746v16.45605h-1.87988
		c-1.88721,0-3.42236,1.52393-3.42236,3.39746v2.39746c0,1.78955,1.40509,3.24445,3.17529,3.37268v15.56433
		c0,4.51709,3.7085,8.19238,8.26709,8.19238h0.18066v6.62598c0,2.53418,2.07861,4.59619,4.6333,4.59619h8.24365
		c2.55469,0,4.6333-2.06201,4.6333-4.59619v-6.62598h0.18115c4.55811,0,8.2666-3.67529,8.2666-8.19238V31.02113
		c1.77039-0.12805,3.17578-1.58295,3.17578-3.37268v-2.39746c0-1.87354-1.53516-3.39746-3.42236-3.39746h-1.87988V5.39747
		c0-1.87354-1.53516-3.39746-3.42236-3.39746c-1.8348,0-3.42236,1.48018-3.42236,3.39746v16.45605H25.76807V5.39747
		C25.76807,3.52394,24.23291,2.00001,22.3457,2.00001z M20.92383,5.39747c0-0.79357,0.68039-1.39746,1.42188-1.39746
		c0.78418,0,1.42236,0.62695,1.42236,1.39746v16.45361h-2.84424V5.39747z M44.23145,5.39747
		c0-0.80035,0.68675-1.39746,1.42236-1.39746c0.78418,0,1.42236,0.62695,1.42236,1.39746v16.45361h-2.84473V5.39747z
		 M40.75488,61.40382c0,1.43164-1.18115,2.59619-2.6333,2.59619h-8.24365c-1.45215,0-2.6333-1.16455-2.6333-2.59619v-6.62598
		h13.51025V61.40382z M49.20264,46.58546c0,3.41455-2.81104,6.19238-6.2666,6.19238c-7.42844,0-10.52438,0-17.87207,0
		c-3.45557,0-6.26709-2.77783-6.26709-6.19238V31.04591h30.40576V46.58546z M52.37842,25.25099v2.39746
		c0,0.77051-0.63818,1.39746-1.42236,1.39746c-18.27613,0-14.31756,0-33.91211,0c-0.78418,0-1.42236-0.62695-1.42236-1.39746
		v-2.39746c0-0.77051,0.63818-1.39746,1.42236-1.39746h33.91211C51.74023,23.85353,52.37842,24.48048,52.37842,25.25099z" class="color010101 svgShape"></path><path fill="#6e6e6e" d="M22.3457 37.64943c.55225 0 1-.44775 1-1v-2.5c0-.55225-.44775-1-1-1s-1 .44775-1 1v2.5C21.3457 37.20167 21.79346 37.64943 22.3457 37.64943zM22.3457 45.64943c.55225 0 1-.44775 1-1v-4.08008c0-.55225-.44775-1-1-1s-1 .44775-1 1v4.08008C21.3457 45.20167 21.79346 45.64943 22.3457 45.64943z" class="color010101 svgShape"></path></svg>