<svg xmlns="http://www.w3.org/2000/svg" fill="none" viewBox="0 0 32 32" id="Toilet"><path fill="#6e6e6e" fill-rule="evenodd" d="M16 4C15.7239 4 15.5 4.22386 15.5 4.5V29.5C15.5 29.7761 15.7239 30 16 30C16.2761 30 16.5 29.7761 16.5 29.5V4.5C16.5 4.22386 16.2761 4 16 4ZM10.5968 7C10.5968 8.10457 9.70135 9 8.59678 9C7.49221 9 6.59678 8.10457 6.59678 7C6.59678 5.89543 7.49221 5 8.59678 5C9.70135 5 10.5968 5.89543 10.5968 7ZM4.23524 18.1415L5.09678 16.2939V20.5C5.09678 21.0523 5.5445 21.5 6.09678 21.5V28C6.09678 28.5523 6.5445 29 7.09678 29C7.64907 29 8.09678 28.5523 8.09678 28V21.5H9.09678V28C9.09678 28.5523 9.5445 29 10.0968 29C10.6491 29 11.0968 28.5523 11.0968 28V21.5C11.6491 21.5 12.0968 21.0523 12.0968 20.5V16.294L12.9583 18.1415C13.1917 18.6421 13.7867 18.8586 14.2873 18.6252C14.7878 18.3918 15.0043 17.7969 14.7709 17.2963L11.9508 11.2484C11.9253 11.1857 11.8968 11.1245 11.8653 11.0652L11.8126 10.9522L11.8033 10.9565C11.4517 10.3828 10.819 10 10.0968 10H7.09678C6.37461 10 5.74183 10.3828 5.39026 10.9565L5.38095 10.9521L5.32818 11.0653C5.29678 11.1246 5.26828 11.1856 5.24286 11.2483L2.42262 17.2963C2.18921 17.7968 2.40577 18.3918 2.90631 18.6252C3.40685 18.8586 4.00183 18.6421 4.23524 18.1415ZM23.5968 9C24.7014 9 25.5968 8.10457 25.5968 7C25.5968 5.89543 24.7014 5 23.5968 5C22.4922 5 21.5968 5.89543 21.5968 7C21.5968 8.10457 22.4922 9 23.5968 9ZM19.2352 18.1415L19.3051 17.9918L19.0945 20.4134C19.0437 20.9976 19.5043 21.5 20.0907 21.5H21.0968V28C21.0968 28.5523 21.5445 29 22.0968 29C22.6491 29 23.0968 28.5523 23.0968 28V21.5H24.0968V28C24.0968 28.5523 24.5445 29 25.0968 29C25.6491 29 26.0968 28.5523 26.0968 28V21.5H26.9184C27.5015 21.5 27.961 21.0031 27.9153 20.4217L27.6912 17.5688L27.9583 18.1415C28.1917 18.6421 28.7867 18.8586 29.2873 18.6252C29.7878 18.3918 30.0043 17.7969 29.7709 17.2963L27.1334 11.6401C27.0843 11.5058 27.024 11.3771 26.9538 11.255L26.8126 10.9522L26.7658 10.974C26.307 10.3794 25.5877 10 24.7854 10H22.292C21.0343 10 19.9791 10.9327 19.8142 12.1675L17.4226 17.2963C17.1892 17.7968 17.4058 18.3918 17.9063 18.6252C18.4068 18.8586 19.0018 18.6421 19.2352 18.1415Z" clip-rule="evenodd" class="color000000 svgShape"></path></svg>