<svg xmlns="http://www.w3.org/2000/svg" xmlns:xlink="http://www.w3.org/1999/xlink" version="1.1" x="0px" y="0px" viewBox="0 0 100 125" style="enable-background:new 0 0 100 100;" xml:space="preserve"><g><path d="M83.8,28.8h-3.1c-3.5,0-6.3,2.8-6.3,6.3v29.7c0,3.5,2.8,6.3,6.3,6.3h3.1c3.5,0,6.3-2.8,6.3-6.3V35.1   C90.1,31.7,87.3,28.8,83.8,28.8z M88.2,64.9c0,2.4-2,4.4-4.4,4.4h-3.1c-2.4,0-4.4-2-4.4-4.4V35.1c0-2.4,2-4.4,4.4-4.4h3.1   c2.4,0,4.4,2,4.4,4.4V64.9z"/><path d="M90,23.1H10c-2.8,0-5,2.2-5,5v43.8c0,2.8,2.2,5,5,5h80c2.8,0,5-2.2,5-5V28.1C95,25.4,92.8,23.1,90,23.1z M93.1,71.9   c0,1.7-1.4,3.1-3.1,3.1H10c-1.7,0-3.1-1.4-3.1-3.1V28.1c0-1.7,1.4-3.1,3.1-3.1h80c1.7,0,3.1,1.4,3.1,3.1V71.9z"/></g></svg>