<svg xmlns="http://www.w3.org/2000/svg" viewBox="0 0 32 32" id="Snacks"><path d="M7.5 18a.5.5 0 1 0 .5.5.5.5 0 0 0-.5-.5Zm3 1a.5.5 0 1 0 .5.5.5.5 0 0 0-.5-.5Zm-6 0a.5.5 0 1 0 .5.5.5.5 0 0 0-.5-.5Zm3 1a.5.5 0 1 0 .5.5.5.5 0 0 0-.5-.5Zm10 0a.5.5 0 1 0 .5.5.5.5 0 0 0-.5-.5ZM29 10V8h-5V3.38L26.68.71 26 0l-3 3v5h-5v2h-3v3h1.05l.32 3.08a4.94 4.94 0 0 0-.87-.08h-9A5.51 5.51 0 0 0 1 21.5v.59a1.49 1.49 0 0 0 0 2.82v1.68a1.48 1.48 0 0 0 0 2.81A3 3 0 0 0 4 32h25l2-19h1v-3ZM19 9h9v1h-9ZM2 21.5A4.51 4.51 0 0 1 6.5 17h9a4.51 4.51 0 0 1 4.5 4.5v.5H2ZM1.5 23h19a.5.5 0 0 1 0 1h-19a.5.5 0 0 1 0-1Zm.5 3.5V25h18.36v1.5Zm6.07 1L7 28.82 5.93 27.5Zm1.29 0h11.15a.49.49 0 1 1 0 1H8.57Zm-7.87 1a.49.49 0 1 1 0-1h3.15l.79 1ZM18 31H4a2 2 0 0 1-2-1.53h4.24l.76.93.76-.93h12.18A2 2 0 0 1 18 31Zm10.08 0h-7.89a3 3 0 0 0 .61-1h7.36Zm.21-2h-6.72a1.44 1.44 0 0 0 .43-1 1.47 1.47 0 0 0-.64-1.21v-2.07a1.16 1.16 0 0 0 .28-.26 3.5 3.5 0 1 0-1-4.95 5.52 5.52 0 0 0-3.21-3.16L17.06 13h12.88ZM21 22.09v-.59a2.52 2.52 0 1 1 1 2 1.51 1.51 0 0 0-1-1.41ZM31 12H16v-1h15Zm-16.5 8a.5.5 0 1 0 .5.5.5.5 0 0 0-.5-.5Zm1-2a.5.5 0 1 0 .5.5.5.5 0 0 0-.5-.5Z" fill="#6e6e6e" class="color000000 svgShape"></path></svg>