<svg id="SvgjsSvg1075" width="288" height="288" xmlns="http://www.w3.org/2000/svg" version="1.1" xmlns:xlink="http://www.w3.org/1999/xlink" xmlns:svgjs="http://svgjs.com/svgjs"><defs id="SvgjsDefs1076"></defs><g id="SvgjsG1077"><svg xmlns="http://www.w3.org/2000/svg" viewBox="0 0 68 68" width="288" height="288"><path fill="#b8b8b8" d="M56.4805,50H19.52a4.4746,4.4746,0,0,1-1.8642-.4033,1,1,0,1,1,.8281-1.82A2.4849,2.4849,0,0,0,19.52,48h36.961A2.5223,2.5223,0,0,0,59,45.48V42.5073A6.3065,6.3065,0,0,1,55.46,36.5,6.3065,6.3065,0,0,1,59,30.4927V27.52a2.5427,2.5427,0,0,0-2.1055-2.4858,1,1,0,0,1,.3282-1.9727A4.5047,4.5047,0,0,1,61,27.52v3.67a1,1,0,0,1-.7559.97c-.1064.0288-2.7841.7924-2.7841,4.34s2.6777,4.3115,2.792,4.3423A1.01,1.01,0,0,1,61,41.81v3.67A4.5249,4.5249,0,0,1,56.4805,50ZM60,31.19h0Z" class="colorfff171 svgShape"></path><path fill="#6e6e6e" d="M33 28H19a1 1 0 0 0 0 2H33a1 1 0 0 0 0-2zM28 35H19a1 1 0 0 0 0 2h9a1 1 0 0 0 0-2z" class="color93cee2 svgShape"></path><path fill="#6e6e6e" d="M53.2441,28.16A1,1,0,0,0,54,27.19V23.52a4.5249,4.5249,0,0,0-4.52-4.52H12.52A4.5249,4.5249,0,0,0,8,23.52v3.67a1.01,1.01,0,0,0,.748.9678c.1143.0308,2.792.7944,2.792,4.3423s-2.6777,4.3115-2.7841,4.34A1,1,0,0,0,8,37.81v3.67A4.5249,4.5249,0,0,0,12.52,46h36.961A4.5249,4.5249,0,0,0,54,41.48V37.81a1.01,1.01,0,0,0-.748-.9678c-.1143-.0308-2.792-.7944-2.792-4.3423S53.1377,28.1885,53.2441,28.16ZM52,38.5073V41.48a2.5223,2.5223,0,0,1-2.52,2.52H12.52A2.5223,2.5223,0,0,1,10,41.48V38.5073A6.3065,6.3065,0,0,0,13.54,32.5,6.3065,6.3065,0,0,0,10,26.4927V23.52A2.5223,2.5223,0,0,1,12.52,21h36.961A2.5223,2.5223,0,0,1,52,23.52v2.9727A6.3065,6.3065,0,0,0,48.46,32.5,6.3065,6.3065,0,0,0,52,38.5073Z" class="color93cee2 svgShape"></path><path fill="#6e6e6e" d="M40 36a1 1 0 0 0-1 1v1a1 1 0 0 0 2 0V37A1 1 0 0 0 40 36zM41 43V42a1 1 0 0 0-2 0v1a1 1 0 0 0 2 0zM40 31a1 1 0 0 0-1 1v1a1 1 0 0 0 2 0V32A1 1 0 0 0 40 31zM40 26a1 1 0 0 0-1 1v1a1 1 0 0 0 2 0V27A1 1 0 0 0 40 26zM39 22v1a1 1 0 0 0 2 0V22a1 1 0 0 0-2 0z" class="color93cee2 svgShape"></path></svg></g></svg>