<svg xmlns="http://www.w3.org/2000/svg" viewBox="0 0 64 64" id="Toilet"><path d="M50 24H31a2.002 2.002 0 0 0-2 2v2h-3V7a3.003 3.003 0 0 0-3-3h-8a3.003 3.003 0 0 0-3 3v30a5.008 5.008 0 0 0 4 4.899V59a1 1 0 0 0 1 1h28a1 1 0 0 0 .888-1.46A34.645 34.645 0 0 1 41.994 42H42a10.011 10.011 0 0 0 10-10v-6a2.002 2.002 0 0 0-2-2Zm-19 2h19v2H31ZM14 10h10v18H14Zm1-4h8a1.001 1.001 0 0 1 1 1v1H14V7a1.001 1.001 0 0 1 1-1Zm26.029 45.237A37.008 37.008 0 0 0 43.396 58H18V42h21.974a36.999 36.999 0 0 0 1.055 9.237ZM50 32a8.01 8.01 0 0 1-8 8H17a3.003 3.003 0 0 1-3-3v-7h36Z" fill="#6e6e6e" class="color000000 svgShape"></path><path d="M22 11h-2a1 1 0 0 0-1 1v1a1 1 0 0 0 2 0h1a1 1 0 0 0 0-2Z" fill="#6e6e6e" class="color000000 svgShape"></path></svg>