<svg id="SvgjsSvg1051" width="288" height="288" xmlns="http://www.w3.org/2000/svg" version="1.1" xmlns:xlink="http://www.w3.org/1999/xlink" xmlns:svgjs="http://svgjs.com/svgjs"><defs id="SvgjsDefs1052"></defs><g id="SvgjsG1053"><svg xmlns="http://www.w3.org/2000/svg" viewBox="0 0 32 32" width="288" height="288"><path d="M24,9h-.1V4a3,3,0,0,0-3-3h-10a3,3,0,0,0-3,3V9A3,3,0,0,0,5,12V28a3,3,0,0,0,3,3H24a3,3,0,0,0,3-3V12A3,3,0,0,0,24,9ZM10.9,3h10a1,1,0,0,1,1,1V9H9.9V4A1,1,0,0,1,10.9,3ZM25,28a1,1,0,0,1-1,1H17V24.41l3.94-3.94a1,1,0,0,0,.3-.71v-4a1,1,0,0,0-2,0v3.56L17,21.59V14a1,1,0,0,0-2,0v9.59l-2.24-2.24V17.79a1,1,0,0,0-2,0v4a1,1,0,0,0,.3.71L15,26.41V29H8a1,1,0,0,1-1-1V12a1,1,0,0,1,1-1H24a1,1,0,0,1,1,1Z" fill="#b0adad" class="color000 svgShape"></path></svg></g></svg>