<svg id="SvgjsSvg1016" width="288" height="288" xmlns="http://www.w3.org/2000/svg" version="1.1" xmlns:xlink="http://www.w3.org/1999/xlink" xmlns:svgjs="http://svgjs.com/svgjs"><defs id="SvgjsDefs1017"></defs><g id="SvgjsG1018"><svg xmlns="http://www.w3.org/2000/svg" viewBox="0 0 16 16" width="288" height="288"><path d="M10.984 1.006c-1.653 0-3 1.347-3 3v2c0 .96.463 1.808 1.168 2.357-1.888.784-3.243 2.784-3.306 5.13a.5.5 0 0 0 .498.513l9.152.015a.5.5 0 0 0 .502-.511c-.056-2.31-1.366-4.298-3.227-5.11a2.988 2.988 0 0 0 1.213-2.394v-2c0-1.653-1.346-3-3-3zm0 1c1.117 0 2 .883 2 2v2c0 1.117-.883 2-2 2-1.116 0-2-.883-2-2v-2c0-1.117.884-2 2-2zm-6.517 2a2.506 2.506 0 0 0-2.5 2.5v1c0 .734.327 1.387.834 1.846-1.61.676-2.743 2.278-2.799 4.127a.5.5 0 0 0 .498.515l3.955.01a.5.5 0 1 0 .002-1l-3.34-.01c.3-1.716 1.699-3.043 3.485-2.99a.5.5 0 0 0 .226-.035 2.498 2.498 0 0 0 2.139-2.463v-1c0-1.376-1.124-2.5-2.5-2.5zm0 1c.84 0 1.5.66 1.5 1.5v1c0 .84-.66 1.5-1.5 1.5s-1.5-.66-1.5-1.5v-1c0-.84.66-1.5 1.5-1.5zm6.576 4.004c1.975.068 3.572 1.775 3.853 4.01l-7.945-.012c.299-2.334 2.026-4.069 4.092-3.998z" color="#000" font-family="sans-serif" font-weight="400" overflow="visible" style="line-height:normal;text-indent:0;text-align:start;text-decoration-line:none;text-decoration-style:solid;text-decoration-color:#000;text-transform:none;block-progression:tb;white-space:normal;isolation:auto;mix-blend-mode:normal;solid-color:#000;solid-opacity:1" fill="#dee1e2" class="color000 svgShape"></path></svg></g></svg>