<svg xmlns="http://www.w3.org/2000/svg" viewBox="0 0 128 128" id="wet-wipes"><path d="M109.07992,105.10317l-.00293.01562a6.03872,6.03872,0,0,1-5.88815,4.88127H24.81116a6.04285,6.04285,0,0,1-5.89108-4.89689L12.08815,72.00069H8l6.9956,33.89446A10.0502,10.0502,0,0,0,24.81116,114h78.37767a10.0503,10.0503,0,0,0,9.81407-8.097L120,72.00069h-4.08818Z"></path><path d="M42.18131 98.99986H85.81869a2.00037 2.00037 0 0 0 1.97269-1.66892L89.973 84.33116a2.01977 2.01977 0 0 0-1.97269-2.331H39.99967a2.0194 2.0194 0 0 0-1.97272 2.331l2.18167 12.99979A2.00037 2.00037 0 0 0 42.18131 98.99986zM85.63656 86.00007l-1.51028 8.99985H43.87372l-1.51028-8.99985zM120 44.00224H92.21863l-2.29211 3.99993H120a4.00455 4.00455 0 0 1 4 3.99993l.00244 11.9998H4V52.00211a4.00455 4.00455 0 0 1 4-3.99993H38.07349l-2.29211-3.99993H8a8.0091 8.0091 0 0 0-8 7.99987v11.9998a4.00455 4.00455 0 0 0 4 3.99993H124a4.00455 4.00455 0 0 0 4-3.99993V52.00211A8.0091 8.0091 0 0 0 120 44.00224z"></path><path d="M46.12195,54.00168H40a1.99989,1.99989,0,1,0,0,3.99978H88a1.99989,1.99989,0,1,0,0-3.99978H81.87805l12.8573-22.43626a1.9996,1.9996,0,0,0-1.4082-2.96712L85.912,27.36888l2.97223-10.186a2.41175,2.41175,0,0,0-.53906-2.39,2.3627,2.3627,0,0,0-2.02734-.73433c-3.8667.064-5.854,2.42028-7.45459,4.3191-1.56152,1.85146-2.543,2.89877-4.55908,2.89877-1.26758,0-2.19971-1.10394-3.584-2.9222-1.6084-2.1117-3.80713-5.007-7.72559-4.22291-2.55664.51023-4.17432,2.50035-5.60156,4.2566-1.46094,1.79726-2.438,2.88851-3.68652,2.88851-2.01465-.00049-2.99561-1.04779-4.55566-2.89877-1.59863-1.89638-3.582-4.24879-7.438-4.3191a2.38616,2.38616,0,0,0-2.35889,1.0351,2.491,2.491,0,0,0-.23779,2.03553L42.09277,27.368l-7.41992,1.23028a1.9996,1.9996,0,0,0-1.4082,2.96712Zm43.712-21.928L79.04608,50.89889l5.73749-19.66261Zm-43.7417-11.118c1.62256,1.9247,3.6416,4.32007,7.61377,4.32056,3.24268,0,5.21-2.42076,6.791-4.366,1.09863-1.35149,2.13623-2.62778,3.28076-2.85629,1.32666-.26659,2.12744.58053,3.75977,2.72348,1.52637,2.00428,3.42578,4.49877,6.7666,4.49877,3.97363,0,5.99365-2.39538,7.6167-4.32056A10.76021,10.76021,0,0,1,84.293,18.63792L73.97949,53.98362l-1.91376.00159.37469-1.49857a2.00008,2.00008,0,0,0-3.88086-.96967l-.618,2.47166L66,53.99027V48.002a2,2,0,0,0-4,0v5.99155l-1.94.00165L59.44043,51.517a2.00008,2.00008,0,0,0-3.88086.96967l.378,1.512-1.93707.00159L43.71973,18.63646A10.73941,10.73941,0,0,1,46.09229,20.95566Zm-2.875,10.2805,5.69507,19.59022L38.166,32.0737Z"></path></svg>